#!OML:ASF G:\JayActor3\Patient Classification 1\Patient 1\Session 6\male.ASF
:FULLY-SPECIFIED
:DEGREES
4179
root -5.10683 16.4576 8.55293 202.44 -15.2763 -182.154
lowerback 31.8199 -0.593771 5.12312
upperback 8.47658 -1.12368 -0.9118
thorax -7.80103 -1.3105 -3.48574
lowerneck 10.5245 13.9059 9.23817
upperneck -15.8901 18.4285 -15.0685
head -4.10093 9.57166 -6.98753
rclavicle -1.19271e-014 -2.44505e-014
rhumerus -34.3775 6.11695 -85.5467
rradius 60.528
rwrist 1.61695
rhand -24.4331 -1.13827
rfingers 7.12502
rthumb 2.05913 -31.1081
lclavicle -1.19271e-014 -2.44505e-014
lhumerus -36.1115 -32.7339 82.5088
lradius 65.054
lwrist 35.776
lhand -22.6137 1.234
lfingers 7.12502
lthumb 3.81611 31.1796
rfemur -53.0984 1.95722 22.3575
rtibia 42.6348
rfoot -16.9803 -3.99878
rtoes -12.3607
lfemur -17.8242 8.03473 -23.3627
ltibia 21.3766
lfoot -22.1456 17.899
ltoes -2.2081
4180
root -5.10274 16.4379 8.52539 202.311 -15.25 -182
lowerback 32.1406 -0.652773 5.28938
upperback 8.08685 -1.11399 -1.00978
thorax -7.69122 -1.29622 -3.39977
lowerneck 10.4596 13.9175 9.28457
upperneck -15.788 18.4442 -15.1586
head -4.04305 9.58549 -7.00559
rclavicle -2.78299e-014 -1.05356e-014
rhumerus -34.031 6.38744 -85.4916
rradius 60.2005
rwrist 1.62407
rhand -24.4124 -1.1008
rfingers 7.12502
rthumb 2.07911 -31.0704
lclavicle -2.78299e-014 -1.05356e-014
lhumerus -35.8776 -32.7598 82.3432
lradius 64.8566
lwrist 35.842
lhand -22.5724 1.26432
lfingers 7.12502
lthumb 3.85601 31.2092
rfemur -53.0575 1.98516 22.5885
rtibia 42.907
rfoot -17.2965 -3.78107
rtoes -13.3774
lfemur -18.2944 8.06213 -23.1447
ltibia 22.6648
lfoot -22.6904 17.9181
ltoes -2.42074
4181
root -5.09892 16.4165 8.49828 202.152 -15.2123 -181.838
lowerback 32.2016 -0.694639 5.44212
upperback 8.09926 -1.12145 -0.970199
thorax -7.69932 -1.30494 -3.43517
lowerneck 10.3929 13.9298 9.33037
upperneck -15.6626 18.463 -15.2461
head -3.97791 9.60121 -7.02101
rclavicle 4.21423e-014 -3.00165e-014
rhumerus -33.6768 6.74068 -85.4651
rradius 59.8793
rwrist 1.57932
rhand -24.4004 -1.11106
rfingers 7.12502
rthumb 2.09065 -31.0806
lclavicle 4.21423e-014 -3.00165e-014
lhumerus -35.6593 -32.7912 82.1663
lradius 64.6802
lwrist 35.9444
lhand -22.5592 1.27343
lfingers 7.12502
lthumb 3.86875 31.2181
rfemur -52.9853 1.9794 22.8657
rtibia 43.1735
rfoot -17.5747 -3.64746
rtoes -14.7592
lfemur -18.7638 8.11231 -22.924
ltibia 24.0286
lfoot -23.2189 17.9524
ltoes -2.72937
4182
root -5.09565 16.3954 8.47114 201.965 -15.1597 -181.676
lowerback 32.2874 -0.738288 5.59699
upperback 8.11389 -1.13222 -0.938883
thorax -7.71505 -1.31624 -3.47852
lowerneck 10.3242 13.9368 9.38951
upperneck -15.5013 18.4802 -15.3284
head -3.90114 9.61587 -7.03398
rclavicle 5.96354e-015 -1.80894e-014
rhumerus -33.3254 7.17477 -85.4629
rradius 59.5644
rwrist 1.48465
rhand -24.3821 -1.14407
rfingers 7.12502
rthumb 2.10837 -31.1134
lclavicle 5.96354e-015 -1.80894e-014
lhumerus -35.4566 -32.8577 81.987
lradius 64.5213
lwrist 36.0723
lhand -22.6095 1.27707
lfingers 7.12502
lthumb 3.82019 31.2226
rfemur -52.8676 1.96832 23.1447
rtibia 43.4329
rfoot -17.8972 -3.48385
rtoes -15.9654
lfemur -19.2088 8.16542 -22.7091
ltibia 25.4272
lfoot -23.6924 18.0355
ltoes -3.21376
4183
root -5.09284 16.3754 8.44364 201.753 -15.0869 -181.524
lowerback 32.3923 -0.778034 5.74466
upperback 8.13144 -1.14241 -0.919948
thorax -7.73523 -1.32799 -3.53074
lowerneck 10.2471 13.9354 9.46971
upperneck -15.2933 18.4937 -15.3976
head -3.80892 9.6273 -7.04197
rclavicle 2.38542e-014 1.94809e-014
rhumerus -32.9798 7.68385 -85.4895
rradius 59.2551
rwrist 1.33747
rhand -24.3624 -1.20421
rfingers 7.12502
rthumb 2.1274 -31.1734
lclavicle 2.38542e-014 1.94809e-014
lhumerus -35.2559 -32.975 81.8014
lradius 64.3699
lwrist 36.2138
lhand -22.6844 1.29273
lfingers 7.12502
lthumb 3.74787 31.2395
rfemur -52.7003 1.97132 23.4068
rtibia 43.6754
rfoot -18.2759 -3.33107
rtoes -17.0339
lfemur -19.6246 8.21988 -22.5111
ltibia 26.8462
lfoot -24.0957 18.1765
ltoes -3.8902
4184
root -5.08974 16.3568 8.41626 201.522 -15.0103 -181.395
lowerback 32.5213 -0.815774 5.87624
upperback 8.14875 -1.15564 -0.908095
thorax -7.76544 -1.34183 -3.58006
lowerneck 10.16 13.9254 9.56346
upperneck -15.0388 18.5021 -15.449
head -3.70254 9.63476 -7.04264
rclavicle -1.80894e-014 -1.45113e-014
rhumerus -32.6295 8.24041 -85.5207
rradius 58.9239
rwrist 1.14664
rhand -24.3234 -1.2459
rfingers 7.12502
rthumb 2.16501 -31.2147
lclavicle -1.80894e-014 -1.45113e-014
lhumerus -35.0411 -33.1384 81.6102
lradius 64.2044
lwrist 36.3246
lhand -22.7334 1.31655
lfingers 7.12502
lthumb 3.70057 31.2642
rfemur -52.4869 1.98526 23.6421
rtibia 43.9016
rfoot -18.7185 -3.19807
rtoes -17.9225
lfemur -20.0226 8.27044 -22.3327
ltibia 28.2818
lfoot -24.4198 18.3461
ltoes -4.68514
4185
root -5.08647 16.3399 8.38906 201.291 -14.9364 -181.291
lowerback 32.6465 -0.852118 5.99166
upperback 8.16606 -1.17242 -0.902316
thorax -7.79467 -1.35704 -3.62592
lowerneck 10.0636 13.908 9.66469
upperneck -14.7459 18.5056 -15.4816
head -3.5853 9.63831 -7.03572
rclavicle -2.78299e-015 -1.19271e-014
rhumerus -32.275 8.83706 -85.5507
rradius 58.5732
rwrist 0.896607
rhand -24.2659 -1.28243
rfingers 7.12502
rthumb 2.22061 -31.2506
lclavicle -2.78299e-015 -1.19271e-014
lhumerus -34.8017 -33.3452 81.4147
lradius 64.0172
lwrist 36.4078
lhand -22.7684 1.35326
lfingers 7.12502
lthumb 3.66676 31.3015
rfemur -52.2478 2.01864 23.8446
rtibia 44.1043
rfoot -19.1965 -3.14702
rtoes -18.8069
lfemur -20.4451 8.30757 -22.1782
ltibia 29.7554
lfoot -24.6614 18.5277
ltoes -5.52988
4186
root -5.08282 16.3251 8.36192 201.06 -14.8684 -181.202
lowerback 32.7639 -0.885077 6.09196
upperback 8.18312 -1.18919 -0.894105
thorax -7.82112 -1.3719 -3.66127
lowerneck 9.95945 13.8863 9.77099
upperneck -14.4224 18.5069 -15.501
head -3.45906 9.63971 -7.02315
rclavicle -4.05521e-014 3.598e-014
rhumerus -31.9142 9.46226 -85.5725
rradius 58.2004
rwrist 0.586883
rhand -24.1942 -1.31294
rfingers 7.12502
rthumb 2.28985 -31.2804
lclavicle -4.05521e-014 3.598e-014
lhumerus -34.5316 -33.5765 81.2208
lradius 63.7997
lwrist 36.4633
lhand -22.7822 1.39728
lfingers 7.12502
lthumb 3.6534 31.3457
rfemur -51.9858 2.06994 24.0252
rtibia 44.282
rfoot -19.6836 -3.14173
rtoes -19.6168
lfemur -20.917 8.34124 -22.0357
ltibia 31.2965
lfoot -24.8256 18.6946
ltoes -6.34677
4187
root -5.07909 16.3124 8.33482 200.835 -14.809 -181.122
lowerback 32.8727 -0.914322 6.1808
upperback 8.19834 -1.20353 -0.879015
thorax -7.84574 -1.38526 -3.68425
lowerneck 9.83906 13.8594 9.87882
upperneck -14.0635 18.5036 -15.5086
head -3.32162 9.63789 -7.00395
rclavicle 1.94809e-014 -1.82882e-014
rhumerus -31.5551 10.1074 -85.5795
rradius 57.8213
rwrist 0.219215
rhand -24.1165 -1.36307
rfingers 7.12502
rthumb 2.36484 -31.3297
lclavicle 1.94809e-014 -1.82882e-014
lhumerus -34.2275 -33.8109 81.0329
lradius 63.5458
lwrist 36.4852
lhand -22.7521 1.43694
lfingers 7.12502
lthumb 3.68252 31.3849
rfemur -51.7076 2.13611 24.19
rtibia 44.4276
rfoot -20.133 -3.19568
rtoes -20.4111
lfemur -21.4698 8.36634 -21.8988
ltibia 32.9424
lfoot -24.9054 18.8305
ltoes -7.09716
4188
root -5.07523 16.3028 8.30754 200.62 -14.7595 -181.038
lowerback 32.9667 -0.940257 6.27633
upperback 8.21118 -1.21018 -0.861237
thorax -7.86629 -1.39439 -3.71104
lowerneck 9.6924 13.8254 10.0069
upperneck -13.6685 18.494 -15.5108
head -3.1688 9.6311 -6.9815
rclavicle -1.90833e-014 0
rhumerus -31.2 10.7335 -85.5781
rradius 57.4371
rwrist -0.166585
rhand -24.0427 -1.42317
rfingers 7.12502
rthumb 2.43616 -31.389
lclavicle -1.90833e-014 0
lhumerus -33.8888 -34.0511 80.8402
lradius 63.2621
lwrist 36.4807
lhand -22.6976 1.46838
lfingers 7.12502
lthumb 3.73513 31.4154
rfemur -51.4196 2.2296 24.3302
rtibia 44.5428
rfoot -20.5468 -3.1504
rtoes -20.7296
lfemur -22.1294 8.38548 -21.7525
ltibia 34.7224
lfoot -24.8746 18.9413
ltoes -7.81076
4189
root -5.07118 16.2954 8.28024 200.414 -14.7134 -180.939
lowerback 33.0552 -0.944925 6.44395
upperback 8.21613 -1.16586 -0.88258
thorax -7.88889 -1.37829 -3.83622
lowerneck 9.5028 13.742 10.2779
upperneck -13.2115 18.4369 -15.5117
head -2.98349 9.59297 -6.97082
rclavicle 1.23246e-014 7.7526e-015
rhumerus -30.8855 11.1636 -85.6023
rradius 57.0657
rwrist -0.506698
rhand -23.9883 -1.51682
rfingers 7.12502
rthumb 2.48865 -31.482
lclavicle 1.23246e-014 7.7526e-015
lhumerus -33.5009 -34.4518 80.601
lradius 62.9675
lwrist 36.5065
lhand -22.6168 1.48682
lfingers 7.12502
lthumb 3.81317 31.4324
rfemur -51.1358 2.33482 24.4805
rtibia 44.626
rfoot -20.8722 -3.14342
rtoes -21.0118
lfemur -22.9091 8.42398 -21.5892
ltibia 36.6566
lfoot -24.7193 19.0278
ltoes -8.50487
4190
root -5.06668 16.2896 8.25315 200.223 -14.6743 -180.819
lowerback 33.1416 -0.935657 6.67451
upperback 8.21005 -1.08119 -0.933259
thorax -7.91856 -1.34216 -4.04076
lowerneck 9.25808 13.6236 10.6593
upperneck -12.6916 18.3448 -15.5114
head -2.76539 9.53133 -6.96703
rclavicle 6.95746e-015 -2.14687e-014
rhumerus -30.6079 11.4188 -85.6448
rradius 56.71
rwrist -0.754675
rhand -23.9541 -1.60325
rfingers 7.12502
rthumb 2.52169 -31.5681
lclavicle 6.95746e-015 -2.14687e-014
lhumerus -33.0747 -34.9636 80.3219
lradius 62.6728
lwrist 36.5802
lhand -22.5472 1.49486
lfingers 7.12502
lthumb 3.88036 31.4393
rfemur -50.8711 2.43678 24.6555
rtibia 44.6844
rfoot -21.1055 -3.17817
rtoes -21.2899
lfemur -23.8192 8.48412 -21.402
ltibia 38.7467
lfoot -24.4214 19.0869
ltoes -9.15422
4191
root -5.06211 16.2848 8.22624 200.051 -14.6412 -180.677
lowerback 33.2243 -0.915701 6.96265
upperback 8.19218 -0.961213 -1.00593
thorax -7.95494 -1.28852 -4.3124
lowerneck 8.95211 13.4781 11.13
upperneck -12.1071 18.2238 -15.5071
head -2.51513 9.45017 -6.96681
rclavicle 2.74323e-014 1.09332e-014
rhumerus -30.3639 11.5105 -85.6953
rradius 56.3718
rwrist -0.877692
rhand -23.942 -1.66167
rfingers 7.12502
rthumb 2.53333 -31.6264
lclavicle 2.74323e-014 1.09332e-014
lhumerus -32.6218 -35.5709 80.0138
lradius 62.3928
lwrist 36.7292
lhand -22.5154 1.50342
lfingers 7.12502
lthumb 3.91111 31.4473
rfemur -50.6308 2.53331 24.8552
rtibia 44.7249
rfoot -21.2603 -3.24471
rtoes -21.535
lfemur -24.8578 8.56699 -21.1918
ltibia 40.9787
lfoot -23.9883 19.1044
ltoes -9.68143
